<svg id="Layer_1" data-name="Layer 1" xmlns="http://www.w3.org/2000/svg" viewBox="0 0 3293.19 472.11"><defs><style>.cls-1{fill:#2a93d1;}.cls-2{fill:#f48123;}</style></defs><title>LM logo</title><path class="cls-1" d="M560.19,302.3,549.7,272.13l-8.16-23.45L501.85,134.56H412.43L374.49,248.67l-7.94,23.88-9.89,29.75-5.44,16.36L329.49,384h62.43l19.27-57.47h95.36L527,384h61.64l-23-66.19ZM457.48,188.46l30.15,84.85H429Z"/><path class="cls-1" d="M141.69,305.63V134.42H77.35c.68-.7-4.07,137,2.51,186.76,6.49,49.15,64.48,63,64.48,63H315.42v-53s-117.56-.25-145-.25C147.41,330.91,141.69,305.63,141.69,305.63Z"/><polygon class="cls-1" points="1291.64 220.61 1288.5 220.61 1231.96 134.81 1166.4 134.81 1257.09 286.78 1257.09 383.78 1324.82 383.78 1324.82 277.55 1417.67 134.81 1345.82 134.81 1291.64 220.61"/><polygon class="cls-2" points="1842.08 134.01 1746.77 295.9 1649.31 134.01 1572.16 134.01 1572.16 384.06 1632.23 384.06 1632.23 223.45 1728.81 384.06 1758.84 384.06 1857.19 223.45 1857.19 384.06 1921.38 384.06 1921.38 134.01 1842.08 134.01"/><path class="cls-2" d="M2167.62,302.3l-10.49-30.17-8.07-23.2-39.72-114.22h-89.42L1982,248.82l-7.89,23.73-9.89,29.75-4.41,13.27L1937,384.17h62.43l19.32-57.62H2114l20.48,57.62h61.64l-22.25-64ZM2065,188.61l30.1,84.7h-58.49Z"/><path class="cls-2" d="M2727.1,134.42H2492.93a.69.69,0,0,0-.69.69V383.48a.69.69,0,0,0,.69.69H2727.1a.69.69,0,0,0,.7-.69V333.23a.7.7,0,0,0-.7-.7H2555.75a.69.69,0,0,1-.7-.69V286.5a.7.7,0,0,1,.7-.7l113.3.14-.51-54.82H2555.75a.7.7,0,0,1-.7-.7V185.57a.69.69,0,0,1,.7-.69H2727.1a.7.7,0,0,0,.7-.7V135.11A.69.69,0,0,0,2727.1,134.42Z"/><path class="cls-2" d="M3018.72,210.58s8.93-76.57-93.83-76.57H2755.67v50.75H2924.1s27.58-1.86,27.58,25.53c0,0,.49,22.38-27.58,22.38H2755.67l0,152.52h63.05V285.09h23l98.41,99.65,78.34-.2-94.7-99.45S3018.72,287.84,3018.72,210.58Z"/><path class="cls-1" d="M1087.16,134.82H896.36v50.64h156a6.41,6.41,0,0,0,.55-.87,7.23,7.23,0,0,1,6.56-4.18,7.13,7.13,0,0,1,3.48.91,7.31,7.31,0,0,0,7,0,7.07,7.07,0,0,1,3.48-.91,7.25,7.25,0,0,1,6.56,4.18,7.27,7.27,0,0,0,5.64,4.12,7.26,7.26,0,0,1,6.34,7.19,8.13,8.13,0,0,1-.13,1.37,7.06,7.06,0,0,0-.14,1.36,7.26,7.26,0,0,0,2.3,5.31,7.32,7.32,0,0,1,0,10.6,7.28,7.28,0,0,0-2.16,6.67,8.15,8.15,0,0,1,.13,1.38,7.28,7.28,0,0,1-6.34,7.2,7.22,7.22,0,0,0-5.64,4.12,7.25,7.25,0,0,1-6.56,4.18,7.18,7.18,0,0,1-3.48-.91,7.24,7.24,0,0,0-7,0,7.16,7.16,0,0,1-9.88-3H895.78L894.4,383.78h65.75V287.19H1086c3.71-.09,74.21-1.77,74.21-79.54C1160.07,204,1157.84,134.82,1087.16,134.82Z"/><path class="cls-1" d="M808.28,134.82H617.48v50.64h156a6.41,6.41,0,0,0,.55-.87,7.28,7.28,0,0,1,6.58-4.18,7,7,0,0,1,3.48.91,7.35,7.35,0,0,0,3.48.89,7.49,7.49,0,0,0,3.5-.89,7,7,0,0,1,3.48-.91,7.23,7.23,0,0,1,6.56,4.18,7.25,7.25,0,0,0,5.63,4.12,7.22,7.22,0,0,1,6.21,8.58,7.57,7.57,0,0,0-.11,1.34,7.3,7.3,0,0,0,2.27,5.31,7.3,7.3,0,0,1,0,10.6,7.34,7.34,0,0,0-2.16,6.67,7.22,7.22,0,0,1-6.21,8.58,7.19,7.19,0,0,0-5.63,4.12,7.2,7.2,0,0,1-10,3.27,7.37,7.37,0,0,0-3.5-.89,7.24,7.24,0,0,0-3.48.89,7.17,7.17,0,0,1-9.89-3H616.9l-1.38,149.62h65.74V287.19H807.09c3.72-.09,74.22-1.77,74.22-79.54C881.19,204,879,134.82,808.28,134.82Z"/><polygon class="cls-2" points="2473.8 134.99 2389.2 134.99 2274.63 235.04 2274.63 134.91 2214.95 134.91 2213.49 383.68 2275.42 383.68 2275.42 281.95 2391.58 383.68 2475.87 383.68 2343.3 257.8 2473.8 134.99"/><path class="cls-2" d="M3122.18,99.79c-.6,26.51-2.57,51.92-3.73,77.36-.27,6-.75,6.4-6.68,6.43h-1.32c-12,0-12.11,0-11.29-12.14,1.94-28.75,4-57.5,5.92-86.26.21-3.23,1.51-4.29,4.59-4.22,6.28.13,12.57.21,18.83,0,3.58-.14,5.16,1.32,6.27,4.57,7.72,22.45,16.47,44.57,21.77,67.8a14.55,14.55,0,0,0,.9,2.06c3.5-10.89,6.27-21.45,10.18-31.63,5-12.92,10-25.82,14.85-38.78,1.08-2.89,2.68-4.1,5.82-4,6.27.2,12.55.13,18.83,0,2.83,0,4.22.83,4.38,3.94,1.08,20.64,2.31,41.27,3.48,61.91.61,10.75,1.08,21.52,1.86,32.26.25,3.57-1,4.7-4.41,4.54-3.64-.18-7.31-.19-10.95,0s-4.95-1.47-5.05-4.9c-.23-7.57-.73-15.12-.94-22.69-.53-18.48-2.1-36.92-1.84-55.79-1.51,1-1.51,2.38-1.86,3.5-7.8,25.36-17.64,50-26.5,75-1,2.78-2.52,3.94-5.44,3.89-14.58-.24-11.18,1.73-15.37-10.63-7.86-23.18-15.81-46.35-21.46-70.2A21.39,21.39,0,0,0,3122.18,99.79Z"/><path class="cls-1" d="M3057.13,140.74q0,18.57,0,37.13c0,5.39-.22,5.56-5.76,5.6-3.35,0-6.71-.1-10.06,0s-4.42-1.25-4.38-4.42c.11-8.73,0-17.47,0-26.21,0-16.6-.09-33.2.06-49.8,0-3.92-1.18-5.49-5.25-5.36-7.58.23-15.17,0-22.76.1-3.38,0-4.67-1.29-4.61-4.66.26-14.14-1.66-11.9,11.63-12,22.32-.12,44.64,0,67,0,6.64,0,6.7,0,6.66,6.44-.08,11.37,1.34,10.12-10.36,10.19-5.55,0-11.1.2-16.63-.06-4.13-.19-5.67,1.22-5.6,5.47C3057.27,115.69,3057.13,128.22,3057.13,140.74Z"/></svg>